<svg width="2701" height="600" viewBox="0 0 2701 600" fill="none" xmlns="http://www.w3.org/2000/svg">
<rect x="580.332" y="446.336" width="200" height="600" transform="rotate(136 580.332 446.336)" fill="#565656"/>
<rect y="400" width="200" height="600" transform="rotate(-90 0 400)" fill="black"/>
<rect y="400" width="200" height="200" transform="rotate(-90 0 400)" fill="#565656"/>
<rect x="400" y="600" width="200" height="600" transform="rotate(-180 400 600)" fill="black"/>
<rect x="400" y="600" width="200" height="200" transform="rotate(-180 400 600)" fill="#565656"/>
<rect width="200" height="439.042" transform="matrix(0.71934 0.694658 0.694658 -0.71934 20 446.604)" fill="black"/>
<path d="M833.216 392.56C813.931 392.56 797.12 388.72 782.784 381.04C768.448 373.189 757.355 362.523 749.504 349.04C741.824 335.557 737.984 320.197 737.984 302.96C737.984 289.989 740.288 277.787 744.896 266.352C749.675 254.917 756.416 244.848 765.12 236.144C773.995 227.44 784.576 220.613 796.864 215.664C809.152 210.715 822.805 208.24 837.824 208.24C848.747 208.24 858.987 209.349 868.544 211.568C878.272 213.616 888.512 217.285 899.264 222.576V256.88H891.584C888.341 243.739 881.344 234.181 870.592 228.208C860.011 222.064 847.723 218.992 833.728 218.992C818.88 218.992 806.251 222.405 795.84 229.232C785.429 236.059 777.493 245.275 772.032 256.88C766.571 268.485 763.84 281.627 763.84 296.304C763.84 306.715 765.376 317.04 768.448 327.28C771.691 337.349 776.384 346.565 782.528 354.928C788.672 363.12 796.267 369.691 805.312 374.64C814.357 379.419 824.853 381.808 836.8 381.808C845.333 381.808 852.843 380.869 859.328 378.992C865.813 377.115 871.445 373.104 876.224 366.96C881.173 360.645 885.44 351.173 889.024 338.544H896.704V379.248C884.587 384.027 873.237 387.44 862.656 389.488C852.075 391.536 842.261 392.56 833.216 392.56ZM894.652 390V382.32L902.332 381.04C907.623 380.187 911.036 378.821 912.572 376.944C914.279 374.896 915.132 371.227 915.132 365.936V289.648C915.132 283.845 913.767 279.92 911.036 277.872C908.476 275.653 903.185 274.032 895.164 273.008V266.608L933.82 255.344H937.404V275.824H939.708C943.975 269.68 949.18 264.645 955.324 260.72C961.639 256.795 968.807 254.832 976.828 254.832C982.972 254.832 987.58 256.112 990.652 258.672C993.895 261.232 995.516 264.56 995.516 268.656C995.516 271.387 994.407 273.861 992.188 276.08C990.14 278.299 987.665 279.835 984.764 280.688C981.863 281.371 979.047 280.944 976.316 279.408L964.028 272.24C961.98 271.045 959.505 271.216 956.604 272.752C953.703 274.288 950.801 276.336 947.9 278.896C945.169 281.285 942.865 283.675 940.988 286.064C939.111 288.283 938.172 289.563 938.172 289.904V365.936C938.172 371.227 939.025 374.896 940.732 376.944C942.439 378.821 945.852 380.101 950.972 380.784L963.772 382.32V390H894.652ZM1038.99 392.56C1026.36 392.56 1015.27 389.659 1005.71 383.856C996.151 377.883 988.727 369.861 983.436 359.792C978.316 349.723 975.756 338.373 975.756 325.744C975.756 311.92 978.743 299.632 984.716 288.88C990.86 278.128 999.052 269.68 1009.29 263.536C1019.53 257.392 1030.8 254.32 1043.08 254.32C1056.57 254.32 1067.4 258.16 1075.6 265.84C1083.79 273.52 1087.88 284.699 1087.88 299.376C1087.88 300.4 1087.88 301.509 1087.88 302.704C1087.88 303.728 1087.71 305.179 1087.37 307.056L1086.86 310.64H994.956V300.912H1062.54C1063.05 297.499 1063.31 294.341 1063.31 291.44C1063.31 282.907 1061.09 276.251 1056.65 271.472C1052.21 266.693 1045.81 264.304 1037.45 264.304C1026.02 264.304 1016.72 268.827 1009.55 277.872C1002.55 286.917 999.052 299.035 999.052 314.224C999.052 325.659 1001.1 335.984 1005.2 345.2C1009.46 354.245 1015.44 361.413 1023.12 366.704C1030.97 371.824 1040.18 374.384 1050.76 374.384C1056.74 374.384 1062.54 373.36 1068.17 371.312C1073.8 369.264 1079.78 365.851 1086.09 361.072L1091.21 365.936C1083.02 375.323 1074.74 382.149 1066.38 386.416C1058.02 390.512 1048.89 392.56 1038.99 392.56ZM1118.25 392.56C1110.57 392.56 1104.51 391.365 1100.07 388.976C1095.8 386.416 1092.73 383.259 1090.85 379.504C1089.15 375.579 1088.29 371.653 1088.29 367.728C1088.29 361.925 1090.34 356.123 1094.44 350.32C1098.7 344.347 1105.62 338.373 1115.17 332.4C1124.9 326.427 1137.96 320.539 1154.34 314.736L1160.74 312.432L1161.51 287.088C1161.68 280.773 1159.72 275.568 1155.62 271.472C1151.53 267.205 1145.81 265.072 1138.47 265.072C1132.67 265.072 1127.55 267.035 1123.11 270.96C1118.67 274.885 1115.52 281.029 1113.64 289.392C1113.3 291.099 1111.5 292.72 1108.26 294.256C1105.19 295.621 1101.09 296.304 1095.97 296.304C1093.07 296.304 1090.85 295.963 1089.32 295.28C1087.78 294.597 1087.36 293.061 1088.04 290.672C1090.77 284.016 1095.29 277.957 1101.61 272.496C1107.92 267.035 1115.09 262.683 1123.11 259.44C1131.13 256.027 1139.07 254.32 1146.92 254.32C1158.01 254.32 1167.06 256.965 1174.05 262.256C1181.22 267.547 1184.64 274.971 1184.29 284.528L1181.73 362.608C1181.56 369.264 1183.18 373.531 1186.6 375.408C1190.18 377.285 1196.92 378.565 1206.82 379.248V385.136L1197.86 387.44C1192.4 389.147 1188.05 390.256 1184.81 390.768C1181.73 391.451 1179.34 391.792 1177.64 391.792C1173.03 391.792 1169.53 390.768 1167.14 388.72C1164.92 386.672 1163.3 384.283 1162.28 381.552C1161.42 378.821 1160.83 376.603 1160.49 374.896H1158.44C1151.1 382.064 1144.19 386.843 1137.7 389.232C1131.39 391.451 1124.9 392.56 1118.25 392.56ZM1132.84 375.664C1138.98 375.664 1144.02 374.725 1147.94 372.848C1152.04 370.8 1155.71 368.667 1158.95 366.448L1160.49 321.136L1158.44 321.904C1146.15 326.512 1136.76 331.035 1130.28 335.472C1123.79 339.909 1119.36 344.176 1116.97 348.272C1114.75 352.368 1113.64 356.123 1113.64 359.536C1113.64 370.288 1120.04 375.664 1132.84 375.664ZM1243.16 392.56C1232.57 392.56 1224.13 389.829 1217.81 384.368C1211.5 378.907 1208.34 370.032 1208.34 357.744V272.24H1192.21V264.56C1205.52 257.221 1216.11 247.493 1223.96 235.376H1231.64V256.368V263.792V350.832C1231.64 357.488 1232.75 362.523 1234.96 365.936C1237.18 369.349 1240.17 371.653 1243.92 372.848C1247.85 373.872 1252.03 374.384 1256.47 374.384C1262.27 374.384 1267.31 373.531 1271.57 371.824C1275.84 370.117 1279.85 368.155 1283.6 365.936L1288.21 371.312C1282.92 376.773 1276.52 381.723 1269.01 386.16C1261.5 390.427 1252.88 392.56 1243.16 392.56ZM1220.37 272.24V256.88H1285.14V260.72L1278.48 272.24H1220.37ZM1335.55 392.56C1322.92 392.56 1311.83 389.659 1302.27 383.856C1292.71 377.883 1285.29 369.861 1280 359.792C1274.88 349.723 1272.32 338.373 1272.32 325.744C1272.32 311.92 1275.3 299.632 1281.28 288.88C1287.42 278.128 1295.61 269.68 1305.85 263.536C1316.09 257.392 1327.36 254.32 1339.64 254.32C1353.13 254.32 1363.96 258.16 1372.16 265.84C1380.35 273.52 1384.44 284.699 1384.44 299.376C1384.44 300.4 1384.44 301.509 1384.44 302.704C1384.44 303.728 1384.27 305.179 1383.93 307.056L1383.42 310.64H1291.52V300.912H1359.1C1359.61 297.499 1359.87 294.341 1359.87 291.44C1359.87 282.907 1357.65 276.251 1353.21 271.472C1348.77 266.693 1342.37 264.304 1334.01 264.304C1322.58 264.304 1313.28 268.827 1306.11 277.872C1299.11 286.917 1295.61 299.035 1295.61 314.224C1295.61 325.659 1297.66 335.984 1301.76 345.2C1306.02 354.245 1312 361.413 1319.68 366.704C1327.53 371.824 1336.74 374.384 1347.32 374.384C1353.3 374.384 1359.1 373.36 1364.73 371.312C1370.36 369.264 1376.34 365.851 1382.65 361.072L1387.77 365.936C1379.58 375.323 1371.3 382.149 1362.94 386.416C1354.58 390.512 1345.45 392.56 1335.55 392.56ZM1443.73 392.56C1432.13 392.56 1421.8 389.744 1412.76 384.112C1403.71 378.48 1396.63 370.715 1391.51 360.816C1386.56 350.917 1384.09 339.653 1384.09 327.024C1384.09 313.029 1387.07 300.571 1393.05 289.648C1399.19 278.725 1407.47 270.107 1417.88 263.792C1428.29 257.477 1439.98 254.32 1452.95 254.32C1458.92 254.32 1464.9 255.003 1470.87 256.368C1476.84 257.733 1482.56 260.208 1488.02 263.792V219.504C1488.02 214.043 1486.83 210.203 1484.44 207.984C1482.05 205.595 1476.59 203.888 1468.05 202.864V196.464L1507.48 185.2H1511.06V357.744C1511.06 363.035 1512.26 366.875 1514.65 369.264C1517.04 371.653 1522.67 373.36 1531.54 374.384V381.296L1492.37 390.512H1488.79V372.848H1486.49C1481.71 377.968 1476.84 381.979 1471.89 384.88C1467.12 387.781 1462.34 389.744 1457.56 390.768C1452.95 391.963 1448.34 392.56 1443.73 392.56ZM1455.77 375.92C1461.06 375.92 1466.43 374.981 1471.89 373.104C1477.36 371.056 1482.73 367.301 1488.02 361.84V302.448C1488.02 293.403 1486.23 286.064 1482.65 280.432C1479.06 274.8 1474.45 270.704 1468.82 268.144C1463.36 265.413 1457.47 264.048 1451.16 264.048C1437.16 264.048 1426.5 268.485 1419.16 277.36C1411.82 286.235 1408.15 299.035 1408.15 315.76C1408.15 327.877 1410.11 338.459 1414.04 347.504C1417.96 356.549 1423.51 363.547 1430.68 368.496C1437.85 373.445 1446.21 375.92 1455.77 375.92ZM1569.1 392.56V219.504C1569.1 214.043 1567.91 210.203 1565.52 207.984C1563.13 205.595 1557.67 203.888 1549.14 202.864V196.464L1588.56 185.2H1592.14V274.032H1593.68C1598.29 269.424 1602.81 265.669 1607.25 262.768C1611.69 259.867 1616.29 257.733 1621.07 256.368C1625.85 255.003 1630.97 254.32 1636.43 254.32C1648.21 254.32 1658.53 257.136 1667.41 262.768C1676.45 268.229 1683.45 275.824 1688.4 285.552C1693.52 295.28 1696.08 306.629 1696.08 319.6C1696.08 333.765 1692.92 346.395 1686.61 357.488C1680.46 368.411 1672.02 377.029 1661.26 383.344C1650.51 389.488 1638.31 392.56 1624.66 392.56C1617.32 392.56 1610.15 391.536 1603.15 389.488C1596.15 387.44 1589.93 384.368 1584.46 380.272L1576.78 392.56H1569.1ZM1628.5 382.832C1642.15 382.832 1652.82 378.224 1660.5 369.008C1668.18 359.621 1672.02 346.48 1672.02 329.584C1672.02 317.808 1670.14 307.568 1666.38 298.864C1662.8 289.989 1657.59 283.163 1650.77 278.384C1643.94 273.435 1635.75 270.96 1626.19 270.96C1619.88 270.96 1613.82 272.155 1608.02 274.544C1602.21 276.763 1596.92 280.261 1592.14 285.04V343.152C1592.14 351.344 1593.51 358.427 1596.24 364.4C1598.97 370.203 1602.98 374.725 1608.27 377.968C1613.73 381.211 1620.47 382.832 1628.5 382.832ZM1701.92 453.232V449.392L1747.23 384.112L1702.68 284.528C1699.95 278.555 1697.05 274.032 1693.98 270.96C1691.08 267.888 1687.84 266.011 1684.25 265.328L1679.9 264.56V256.88H1743.39V264.56L1736.99 265.072C1724.87 266.096 1721.37 272.581 1726.49 284.528L1761.82 367.728L1754.4 367.984L1785.37 289.904C1788.79 281.541 1789.47 275.483 1787.42 271.728C1785.54 267.803 1781.62 265.584 1775.64 265.072L1770.27 264.56V256.88H1823.52V264.56L1818.14 265.328C1815.24 265.669 1812.76 266.523 1810.72 267.888C1808.67 269.253 1806.62 271.557 1804.57 274.8C1802.69 278.043 1800.48 282.736 1797.92 288.88L1728.28 453.232H1701.92ZM1864.26 390V382.32L1872.2 381.552C1877.32 381.04 1881.25 380.187 1883.98 378.992C1886.71 377.797 1888.58 376.005 1889.61 373.616C1890.63 371.056 1891.14 367.813 1891.14 363.888V309.104L1846.6 238.448C1843.19 232.816 1840.2 228.635 1837.64 225.904C1835.25 223.173 1832.69 221.296 1829.96 220.272C1827.23 219.248 1823.65 218.651 1819.21 218.48V210.8H1885.77V218.48L1880.39 218.736C1874.59 219.077 1871.01 220.869 1869.64 224.112C1868.27 227.355 1869.47 232.133 1873.22 238.448L1913.67 304.752H1903.94L1943.62 239.216C1947.38 233.072 1948.4 228.208 1946.7 224.624C1945.16 221.04 1941.32 219.077 1935.18 218.736L1929.8 218.48V210.8H1983.82V218.48C1978.18 218.821 1973.41 220.528 1969.48 223.6C1965.55 226.501 1961.37 231.451 1956.94 238.448L1915.21 306.032V363.888C1915.21 367.813 1915.72 371.056 1916.74 373.616C1917.77 376.005 1919.65 377.797 1922.38 378.992C1925.28 380.187 1929.2 381.04 1934.15 381.552L1942.09 382.32V390H1864.26ZM2017.58 392.56C2003.92 392.56 1991.89 389.659 1981.48 383.856C1971.07 378.053 1962.96 369.947 1957.16 359.536C1951.36 349.125 1948.46 337.093 1948.46 323.44C1948.46 310.469 1951.36 298.779 1957.16 288.368C1962.96 277.957 1970.98 269.68 1981.22 263.536C1991.63 257.392 2003.75 254.32 2017.58 254.32C2031.4 254.32 2043.52 257.221 2053.93 263.024C2064.34 268.827 2072.45 276.933 2078.25 287.344C2084.05 297.584 2086.95 309.531 2086.95 323.184C2086.95 336.155 2084.05 347.931 2078.25 358.512C2072.45 368.923 2064.34 377.2 2053.93 383.344C2043.69 389.488 2031.57 392.56 2017.58 392.56ZM2021.67 382.576C2033.28 382.576 2042.92 378.224 2050.6 369.52C2058.28 360.816 2062.12 347.675 2062.12 330.096C2062.12 318.491 2060.24 307.739 2056.49 297.84C2052.9 287.771 2047.53 279.664 2040.36 273.52C2033.19 267.376 2024.32 264.304 2013.74 264.304C2002.13 264.304 1992.49 268.656 1984.81 277.36C1977.13 286.064 1973.29 299.291 1973.29 317.04C1973.29 328.475 1975.08 339.227 1978.66 349.296C1982.42 359.195 1987.88 367.216 1995.05 373.36C2002.22 379.504 2011.09 382.576 2021.67 382.576ZM2130.8 455.792C2116.29 455.792 2104.6 452.891 2095.73 447.088C2087.02 441.285 2082.67 433.776 2082.67 424.56C2082.67 420.976 2083.61 416.88 2085.49 412.272C2087.54 407.835 2091.46 402.715 2097.26 396.912L2111.34 382.832L2121.07 384.368C2115.27 391.024 2110.75 396.485 2107.5 400.752C2104.43 405.189 2102.9 409.797 2102.9 414.576C2102.9 422.256 2106.57 428.059 2113.9 431.984C2121.41 436.08 2131.65 438.128 2144.62 438.128C2158.96 438.128 2170.14 435.397 2178.16 429.936C2186.35 424.475 2190.45 417.307 2190.45 408.432C2190.45 402.8 2188.57 398.704 2184.82 396.144C2181.06 393.584 2174.23 391.963 2164.34 391.28L2114.93 387.696C2107.08 387.013 2100.68 385.051 2095.73 381.808C2090.95 378.395 2088.56 374.043 2088.56 368.752C2088.56 364.315 2090.1 360.645 2093.17 357.744C2096.24 354.843 2100.17 351.173 2104.94 346.736L2112.88 339.056H2123.89L2116.21 347.76C2113.82 350.491 2112.2 352.539 2111.34 353.904C2110.66 355.099 2110.32 356.379 2110.32 357.744C2110.32 359.963 2111.17 361.755 2112.88 363.12C2114.76 364.485 2117.74 365.339 2121.84 365.68L2170.74 369.776C2192.58 371.483 2203.5 381.296 2203.5 399.216C2203.5 409.797 2200.18 419.355 2193.52 427.888C2187.03 436.421 2178.33 443.163 2167.41 448.112C2156.49 453.232 2144.28 455.792 2130.8 455.792ZM2135.66 344.944C2126.11 344.944 2117.57 343.067 2110.06 339.312C2102.55 335.387 2096.67 330.011 2092.4 323.184C2088.13 316.357 2086 308.592 2086 299.888C2086 291.013 2088.13 283.163 2092.4 276.336C2096.84 269.509 2102.9 264.133 2110.58 260.208C2118.26 256.283 2126.96 254.32 2136.69 254.32L2147.18 255.088C2158.79 257.136 2168.18 262.085 2175.34 269.936C2182.68 277.787 2186.35 287.429 2186.35 298.864C2186.35 307.739 2184.13 315.675 2179.7 322.672C2175.43 329.499 2169.46 334.96 2161.78 339.056C2154.1 342.981 2145.39 344.944 2135.66 344.944ZM2138.22 334.96C2146.42 334.96 2152.73 332.229 2157.17 326.768C2161.61 321.136 2163.82 313.115 2163.82 302.704C2163.82 294.853 2162.63 288.112 2160.24 282.48C2157.85 276.677 2154.44 272.24 2150 269.168C2145.56 265.925 2140.27 264.304 2134.13 264.304C2125.94 264.304 2119.62 267.12 2115.18 272.752C2110.75 278.213 2108.53 286.149 2108.53 296.56C2108.53 304.411 2109.72 311.237 2112.11 317.04C2114.5 322.672 2117.91 327.109 2122.35 330.352C2126.96 333.424 2132.25 334.96 2138.22 334.96ZM2136.69 258.16V254.32L2200.18 242.032H2205.04V258.16H2136.69ZM2223.97 392.56C2216.29 392.56 2210.23 391.365 2205.79 388.976C2201.52 386.416 2198.45 383.259 2196.57 379.504C2194.87 375.579 2194.01 371.653 2194.01 367.728C2194.01 361.925 2196.06 356.123 2200.16 350.32C2204.42 344.347 2211.34 338.373 2220.89 332.4C2230.62 326.427 2243.68 320.539 2260.06 314.736L2266.46 312.432L2267.23 287.088C2267.4 280.773 2265.44 275.568 2261.34 271.472C2257.25 267.205 2251.53 265.072 2244.19 265.072C2238.39 265.072 2233.27 267.035 2228.83 270.96C2224.39 274.885 2221.24 281.029 2219.36 289.392C2219.02 291.099 2217.22 292.72 2213.98 294.256C2210.91 295.621 2206.81 296.304 2201.69 296.304C2198.79 296.304 2196.57 295.963 2195.04 295.28C2193.5 294.597 2193.08 293.061 2193.76 290.672C2196.49 284.016 2201.01 277.957 2207.33 272.496C2213.64 267.035 2220.81 262.683 2228.83 259.44C2236.85 256.027 2244.79 254.32 2252.64 254.32C2263.73 254.32 2272.78 256.965 2279.77 262.256C2286.94 267.547 2290.36 274.971 2290.01 284.528L2287.45 362.608C2287.28 369.264 2288.9 373.531 2292.32 375.408C2295.9 377.285 2302.64 378.565 2312.54 379.248V385.136L2303.58 387.44C2298.12 389.147 2293.77 390.256 2290.53 390.768C2287.45 391.451 2285.06 391.792 2283.36 391.792C2278.75 391.792 2275.25 390.768 2272.86 388.72C2270.64 386.672 2269.02 384.283 2268 381.552C2267.14 378.821 2266.55 376.603 2266.21 374.896H2264.16C2256.82 382.064 2249.91 386.843 2243.42 389.232C2237.11 391.451 2230.62 392.56 2223.97 392.56ZM2238.56 375.664C2244.7 375.664 2249.74 374.725 2253.66 372.848C2257.76 370.8 2261.43 368.667 2264.67 366.448L2266.21 321.136L2264.16 321.904C2251.87 326.512 2242.48 331.035 2236 335.472C2229.51 339.909 2225.08 344.176 2222.69 348.272C2220.47 352.368 2219.36 356.123 2219.36 359.536C2219.36 370.288 2225.76 375.664 2238.56 375.664ZM2370.64 392.56C2356.98 392.56 2344.95 389.659 2334.54 383.856C2324.13 378.053 2316.02 369.947 2310.22 359.536C2304.42 349.125 2301.52 337.093 2301.52 323.44C2301.52 310.469 2304.42 298.779 2310.22 288.368C2316.02 277.957 2324.04 269.68 2334.28 263.536C2344.69 257.392 2356.81 254.32 2370.64 254.32C2384.46 254.32 2396.58 257.221 2406.99 263.024C2417.4 268.827 2425.51 276.933 2431.31 287.344C2437.11 297.584 2440.01 309.531 2440.01 323.184C2440.01 336.155 2437.11 347.931 2431.31 358.512C2425.51 368.923 2417.4 377.2 2406.99 383.344C2396.75 389.488 2384.63 392.56 2370.64 392.56ZM2374.73 382.576C2386.34 382.576 2395.98 378.224 2403.66 369.52C2411.34 360.816 2415.18 347.675 2415.18 330.096C2415.18 318.491 2413.3 307.739 2409.55 297.84C2405.96 287.771 2400.59 279.664 2393.42 273.52C2386.25 267.376 2377.38 264.304 2366.8 264.304C2355.19 264.304 2345.55 268.656 2337.87 277.36C2330.19 286.064 2326.35 299.291 2326.35 317.04C2326.35 328.475 2328.14 339.227 2331.72 349.296C2335.48 359.195 2340.94 367.216 2348.11 373.36C2355.28 379.504 2364.15 382.576 2374.73 382.576ZM2434.45 390V382.32L2442.13 381.04C2447.25 380.187 2450.67 378.821 2452.37 376.944C2454.08 374.896 2454.93 371.227 2454.93 365.936V289.648C2454.93 284.187 2453.74 280.347 2451.35 278.128C2448.96 275.739 2443.5 274.032 2434.96 273.008V266.608L2473.62 255.344H2477.2V274.032H2478.74C2486.93 266.864 2494.53 261.829 2501.52 258.928C2508.52 255.856 2516.71 254.32 2526.1 254.32C2538.22 254.32 2547.69 257.392 2554.52 263.536C2561.51 269.509 2565.01 278.043 2565.01 289.136V365.936C2565.01 371.227 2565.87 374.896 2567.57 376.944C2569.28 378.821 2572.69 380.187 2577.81 381.04L2585.49 382.32V390H2521.49V382.32L2529.17 381.04C2534.29 380.187 2537.71 378.821 2539.41 376.944C2541.12 374.896 2541.97 371.227 2541.97 365.936V296.816C2541.97 290.501 2540.86 285.381 2538.64 281.456C2536.43 277.531 2533.1 274.629 2528.66 272.752C2524.39 270.704 2518.85 269.68 2512.02 269.68C2505.36 269.68 2499.39 270.875 2494.1 273.264C2488.81 275.483 2483.43 279.067 2477.97 284.016V365.936C2477.97 371.227 2478.83 374.896 2480.53 376.944C2482.24 378.821 2485.65 380.187 2490.77 381.04L2498.45 382.32V390H2434.45ZM2640.54 392.56C2627.91 392.56 2616.82 389.659 2607.26 383.856C2597.7 377.883 2590.28 369.861 2584.99 359.792C2579.87 349.723 2577.31 338.373 2577.31 325.744C2577.31 311.92 2580.29 299.632 2586.27 288.88C2592.41 278.128 2600.6 269.68 2610.84 263.536C2621.08 257.392 2632.35 254.32 2644.63 254.32C2658.12 254.32 2668.95 258.16 2677.15 265.84C2685.34 273.52 2689.43 284.699 2689.43 299.376C2689.43 300.4 2689.43 301.509 2689.43 302.704C2689.43 303.728 2689.26 305.179 2688.92 307.056L2688.41 310.64H2596.51V300.912H2664.09C2664.6 297.499 2664.86 294.341 2664.86 291.44C2664.86 282.907 2662.64 276.251 2658.2 271.472C2653.76 266.693 2647.36 264.304 2639 264.304C2627.57 264.304 2618.27 268.827 2611.1 277.872C2604.1 286.917 2600.6 299.035 2600.6 314.224C2600.6 325.659 2602.65 335.984 2606.75 345.2C2611.01 354.245 2616.99 361.413 2624.67 366.704C2632.52 371.824 2641.73 374.384 2652.31 374.384C2658.29 374.384 2664.09 373.36 2669.72 371.312C2675.35 369.264 2681.33 365.851 2687.64 361.072L2692.76 365.936C2684.57 375.323 2676.29 382.149 2667.93 386.416C2659.57 390.512 2650.44 392.56 2640.54 392.56Z" fill="black" fill-opacity="0.75"/>
</svg>
