<svg width="1465" height="1465" viewBox="0 0 1465 1465" fill="none" xmlns="http://www.w3.org/2000/svg">
<circle cx="733" cy="732" r="99.5" stroke="#171717" stroke-opacity="0.5"/>
<circle cx="733" cy="732" r="539.5" stroke="#171717" stroke-opacity="0.5"/>
<circle cx="732.5" cy="732.5" r="732" stroke="#171717" stroke-opacity="0.5"/>
<circle cx="733" cy="732" r="359.5" stroke="#171717" stroke-opacity="0.5"/>
<circle cx="372.642" cy="732.93" r="16" fill="#171717"/>
<circle cx="1265.64" cy="1232.93" r="15" fill="#171717"/>
<circle cx="1187.64" cy="438.93" r="32" fill="#171717"/>
<path d="M1247.83 1282.56L1249.75 1280.56L1255.87 1286.47C1256.55 1287.13 1257 1287.87 1257.2 1288.7C1257.4 1289.52 1257.36 1290.36 1257.08 1291.23C1256.8 1292.09 1256.29 1292.91 1255.54 1293.69C1254.78 1294.47 1253.98 1295.02 1253.13 1295.33C1252.28 1295.63 1251.43 1295.7 1250.61 1295.53C1249.78 1295.36 1249.02 1294.94 1248.33 1294.28L1242.21 1288.38L1244.13 1286.38L1250.08 1292.12C1250.44 1292.47 1250.84 1292.7 1251.27 1292.81C1251.7 1292.92 1252.13 1292.91 1252.57 1292.77C1253.01 1292.64 1253.41 1292.38 1253.78 1292C1254.16 1291.61 1254.4 1291.2 1254.52 1290.76C1254.63 1290.32 1254.63 1289.88 1254.5 1289.46C1254.38 1289.03 1254.13 1288.64 1253.78 1288.29L1247.83 1282.56ZM1252.13 1281.39L1250.48 1279.8L1257.95 1272.06L1259.59 1273.65L1256.81 1276.53L1264.59 1284.04L1262.69 1286.01L1254.91 1278.5L1252.13 1281.39ZM1258.14 1271.86L1260.3 1269.63L1266.43 1271.4L1266.52 1271.3L1264.53 1265.24L1266.68 1263.01L1269.46 1272.32L1272.79 1275.53L1270.88 1277.51L1267.55 1274.3L1258.14 1271.86ZM1277.27 1257.46C1276.86 1257.14 1276.42 1257.02 1275.94 1257.1C1275.47 1257.18 1275 1257.46 1274.54 1257.94C1274.23 1258.27 1274.01 1258.58 1273.88 1258.9C1273.76 1259.21 1273.71 1259.5 1273.76 1259.77C1273.81 1260.04 1273.93 1260.28 1274.13 1260.47C1274.3 1260.64 1274.48 1260.75 1274.68 1260.79C1274.88 1260.83 1275.09 1260.83 1275.32 1260.78C1275.54 1260.73 1275.77 1260.64 1276.01 1260.53C1276.25 1260.41 1276.5 1260.27 1276.74 1260.11L1277.76 1259.46C1278.25 1259.13 1278.73 1258.88 1279.22 1258.68C1279.7 1258.48 1280.18 1258.37 1280.64 1258.33C1281.11 1258.3 1281.56 1258.36 1282 1258.51C1282.44 1258.66 1282.86 1258.93 1283.25 1259.3C1283.83 1259.86 1284.18 1260.49 1284.33 1261.19C1284.47 1261.89 1284.39 1262.62 1284.1 1263.39C1283.81 1264.15 1283.29 1264.92 1282.55 1265.69C1281.82 1266.45 1281.06 1267 1280.28 1267.34C1279.51 1267.67 1278.74 1267.78 1277.98 1267.65C1277.22 1267.52 1276.49 1267.14 1275.8 1266.5L1277.66 1264.57C1277.99 1264.85 1278.34 1265.02 1278.71 1265.06C1279.07 1265.1 1279.44 1265.04 1279.81 1264.87C1280.18 1264.7 1280.53 1264.44 1280.86 1264.1C1281.18 1263.76 1281.42 1263.42 1281.56 1263.08C1281.7 1262.73 1281.75 1262.4 1281.71 1262.1C1281.67 1261.79 1281.54 1261.53 1281.31 1261.31C1281.1 1261.1 1280.86 1261 1280.59 1260.98C1280.33 1260.97 1280.03 1261.03 1279.7 1261.17C1279.37 1261.31 1279 1261.51 1278.59 1261.77L1277.34 1262.55C1276.38 1263.16 1275.47 1263.49 1274.62 1263.56C1273.76 1263.62 1272.99 1263.32 1272.3 1262.64C1271.72 1262.09 1271.37 1261.46 1271.24 1260.74C1271.11 1260.02 1271.19 1259.28 1271.47 1258.51C1271.75 1257.74 1272.22 1257.01 1272.89 1256.32C1273.56 1255.62 1274.27 1255.13 1275.01 1254.84C1275.76 1254.54 1276.48 1254.46 1277.19 1254.58C1277.9 1254.69 1278.54 1255.02 1279.11 1255.55L1277.27 1257.46ZM1289.92 1258.06C1289.23 1258.77 1288.48 1259.24 1287.67 1259.47C1286.87 1259.69 1286.06 1259.68 1285.24 1259.44C1284.42 1259.19 1283.64 1258.72 1282.92 1258.02C1282.19 1257.31 1281.69 1256.56 1281.41 1255.75C1281.14 1254.94 1281.1 1254.13 1281.29 1253.31C1281.49 1252.5 1281.93 1251.73 1282.62 1251.02C1283.31 1250.3 1284.06 1249.83 1284.87 1249.61C1285.67 1249.38 1286.49 1249.39 1287.31 1249.64C1288.13 1249.88 1288.9 1250.36 1289.63 1251.06C1290.35 1251.76 1290.85 1252.52 1291.13 1253.33C1291.41 1254.14 1291.44 1254.95 1291.25 1255.77C1291.05 1256.58 1290.61 1257.34 1289.92 1258.06ZM1288.41 1256.58C1288.72 1256.26 1288.89 1255.9 1288.92 1255.5C1288.94 1255.1 1288.85 1254.69 1288.63 1254.27C1288.42 1253.85 1288.11 1253.44 1287.7 1253.04C1287.28 1252.64 1286.86 1252.35 1286.43 1252.15C1286 1251.95 1285.59 1251.87 1285.19 1251.91C1284.8 1251.94 1284.44 1252.12 1284.13 1252.45C1283.81 1252.78 1283.64 1253.14 1283.61 1253.55C1283.58 1253.95 1283.68 1254.36 1283.89 1254.79C1284.1 1255.21 1284.42 1255.62 1284.83 1256.01C1285.24 1256.41 1285.66 1256.71 1286.09 1256.91C1286.52 1257.11 1286.93 1257.18 1287.33 1257.14C1287.73 1257.1 1288.09 1256.91 1288.41 1256.58ZM1290.47 1243.07L1291.94 1244.49L1287.73 1248.85L1286.26 1247.43L1290.47 1243.07ZM1294.29 1253.25L1286.71 1245.94C1286.2 1245.45 1285.87 1244.94 1285.72 1244.41C1285.58 1243.89 1285.6 1243.37 1285.76 1242.85C1285.93 1242.34 1286.23 1241.86 1286.66 1241.42C1286.95 1241.12 1287.24 1240.86 1287.52 1240.66C1287.81 1240.45 1288.03 1240.31 1288.19 1240.22L1289.32 1241.99C1289.23 1242.04 1289.11 1242.11 1288.98 1242.21C1288.85 1242.3 1288.73 1242.4 1288.62 1242.52C1288.34 1242.81 1288.22 1243.07 1288.24 1243.31C1288.26 1243.56 1288.39 1243.79 1288.63 1244.02L1296.17 1251.3L1294.29 1253.25ZM1294.75 1238.63L1296.22 1240.05L1292.11 1244.31L1290.64 1242.89L1294.75 1238.63ZM1289.88 1240.29L1291.77 1238.33L1298.36 1244.69C1298.54 1244.86 1298.71 1244.97 1298.86 1245.01C1299.01 1245.05 1299.16 1245.04 1299.29 1244.98C1299.43 1244.92 1299.56 1244.82 1299.69 1244.69C1299.78 1244.6 1299.86 1244.5 1299.93 1244.39C1300 1244.28 1300.06 1244.2 1300.09 1244.14L1301.85 1245.24C1301.78 1245.37 1301.69 1245.54 1301.56 1245.75C1301.43 1245.97 1301.24 1246.21 1301.01 1246.48C1300.57 1246.97 1300.11 1247.32 1299.62 1247.54C1299.14 1247.75 1298.65 1247.81 1298.15 1247.71C1297.66 1247.62 1297.19 1247.34 1296.73 1246.89L1289.88 1240.29ZM1303.89 1243.3L1294.97 1238.4L1296.88 1236.42L1302.68 1239.91L1302.75 1239.84L1299.1 1234.12L1300.98 1232.18L1306.81 1235.57L1306.87 1235.51L1303.19 1229.88L1305.1 1227.9L1310.31 1236.64L1308.31 1238.71L1302.7 1235.64L1302.61 1235.73L1305.89 1241.23L1303.89 1243.3ZM1314.75 1232.31C1314.32 1232.76 1313.85 1233.08 1313.35 1233.28C1312.85 1233.48 1312.35 1233.54 1311.84 1233.44C1311.33 1233.34 1310.85 1233.07 1310.38 1232.62C1309.99 1232.24 1309.73 1231.85 1309.6 1231.45C1309.47 1231.05 1309.45 1230.64 1309.52 1230.24C1309.6 1229.83 1309.75 1229.43 1309.97 1229.04C1310.2 1228.64 1310.46 1228.25 1310.77 1227.87C1311.12 1227.41 1311.4 1227.04 1311.6 1226.76C1311.81 1226.47 1311.92 1226.23 1311.96 1226.04C1311.99 1225.85 1311.93 1225.69 1311.78 1225.54L1311.75 1225.51C1311.46 1225.23 1311.15 1225.11 1310.81 1225.14C1310.48 1225.17 1310.15 1225.35 1309.83 1225.68C1309.49 1226.03 1309.29 1226.39 1309.25 1226.75C1309.2 1227.11 1309.26 1227.43 1309.43 1227.72L1307.53 1229.39C1307.19 1228.89 1307 1228.35 1306.94 1227.78C1306.89 1227.2 1306.98 1226.62 1307.22 1226.03C1307.47 1225.44 1307.86 1224.86 1308.4 1224.29C1308.78 1223.9 1309.19 1223.57 1309.63 1223.3C1310.07 1223.02 1310.52 1222.84 1310.99 1222.75C1311.45 1222.65 1311.91 1222.67 1312.37 1222.8C1312.83 1222.93 1313.27 1223.19 1313.69 1223.6L1318.46 1228.2L1316.66 1230.06L1315.68 1229.11L1315.63 1229.17C1315.74 1229.49 1315.79 1229.83 1315.78 1230.18C1315.76 1230.53 1315.67 1230.89 1315.5 1231.25C1315.34 1231.6 1315.09 1231.96 1314.75 1232.31ZM1313.94 1230.44C1314.22 1230.15 1314.41 1229.84 1314.51 1229.51C1314.6 1229.18 1314.61 1228.85 1314.54 1228.54C1314.46 1228.22 1314.3 1227.95 1314.05 1227.71L1313.3 1226.98C1313.28 1227.08 1313.24 1227.2 1313.17 1227.34C1313.1 1227.48 1313.02 1227.62 1312.92 1227.78C1312.81 1227.94 1312.71 1228.09 1312.6 1228.24C1312.49 1228.39 1312.4 1228.53 1312.31 1228.65C1312.12 1228.91 1311.98 1229.17 1311.89 1229.41C1311.8 1229.65 1311.77 1229.88 1311.8 1230.1C1311.83 1230.31 1311.94 1230.51 1312.12 1230.68C1312.39 1230.94 1312.69 1231.04 1313.01 1230.98C1313.34 1230.92 1313.65 1230.74 1313.94 1230.44ZM1319.42 1227.2L1312.36 1220.38L1314.19 1218.48L1315.42 1219.67L1315.49 1219.59C1315.18 1219.04 1315.06 1218.51 1315.13 1217.99C1315.19 1217.46 1315.42 1217.01 1315.8 1216.61C1315.89 1216.51 1316 1216.41 1316.12 1216.31C1316.24 1216.21 1316.36 1216.12 1316.46 1216.06L1318.2 1217.74C1318.08 1217.8 1317.94 1217.91 1317.76 1218.05C1317.58 1218.19 1317.43 1218.33 1317.3 1218.46C1317.02 1218.75 1316.83 1219.07 1316.74 1219.42C1316.65 1219.76 1316.65 1220.1 1316.74 1220.45C1316.84 1220.79 1317.03 1221.1 1317.32 1221.38L1321.31 1225.24L1319.42 1227.2ZM1326.96 1219.65C1326.26 1220.38 1325.51 1220.86 1324.71 1221.11C1323.91 1221.34 1323.1 1221.34 1322.29 1221.09C1321.47 1220.85 1320.69 1220.37 1319.94 1219.65C1319.22 1218.95 1318.71 1218.19 1318.44 1217.38C1318.16 1216.57 1318.12 1215.76 1318.3 1214.95C1318.49 1214.14 1318.92 1213.39 1319.59 1212.69C1320.04 1212.23 1320.54 1211.87 1321.07 1211.61C1321.61 1211.35 1322.17 1211.21 1322.76 1211.19C1323.35 1211.18 1323.95 1211.3 1324.57 1211.57C1325.18 1211.83 1325.78 1212.25 1326.39 1212.83L1326.92 1213.35L1321.17 1219.32L1319.95 1218.15L1323.93 1214.03C1323.65 1213.75 1323.34 1213.57 1323 1213.49C1322.67 1213.4 1322.33 1213.41 1322 1213.51C1321.67 1213.6 1321.36 1213.79 1321.09 1214.07C1320.8 1214.37 1320.61 1214.7 1320.53 1215.06C1320.45 1215.42 1320.46 1215.78 1320.56 1216.13C1320.67 1216.47 1320.86 1216.78 1321.13 1217.06L1322.29 1218.17C1322.64 1218.51 1323 1218.73 1323.38 1218.85C1323.76 1218.96 1324.14 1218.97 1324.5 1218.86C1324.87 1218.76 1325.22 1218.54 1325.53 1218.21C1325.74 1217.99 1325.9 1217.76 1326.02 1217.52C1326.13 1217.28 1326.19 1217.04 1326.19 1216.79C1326.19 1216.55 1326.14 1216.3 1326.02 1216.06L1327.89 1214.37C1328.24 1214.88 1328.44 1215.43 1328.49 1216.03C1328.54 1216.63 1328.44 1217.23 1328.18 1217.86C1327.93 1218.47 1327.53 1219.07 1326.96 1219.65ZM1282.88 1285.24L1273.46 1276.15L1275.38 1274.16L1279.27 1277.91L1283.17 1273.87L1279.28 1270.12L1281.2 1268.13L1290.62 1277.22L1288.7 1279.2L1284.81 1275.45L1280.91 1279.49L1284.8 1283.25L1282.88 1285.24ZM1294.89 1273.07C1294.2 1273.78 1293.45 1274.26 1292.64 1274.48C1291.84 1274.71 1291.02 1274.7 1290.21 1274.45C1289.38 1274.2 1288.61 1273.73 1287.89 1273.03C1287.16 1272.33 1286.66 1271.57 1286.38 1270.76C1286.11 1269.95 1286.07 1269.14 1286.26 1268.33C1286.46 1267.51 1286.9 1266.75 1287.59 1266.03C1288.28 1265.32 1289.03 1264.85 1289.83 1264.63C1290.64 1264.4 1291.46 1264.41 1292.28 1264.65C1293.09 1264.9 1293.87 1265.37 1294.6 1266.08C1295.32 1266.78 1295.82 1267.53 1296.1 1268.34C1296.37 1269.15 1296.41 1269.96 1296.22 1270.78C1296.02 1271.59 1295.58 1272.36 1294.89 1273.07ZM1293.38 1271.6C1293.69 1271.27 1293.86 1270.91 1293.89 1270.52C1293.91 1270.12 1293.81 1269.71 1293.6 1269.29C1293.39 1268.86 1293.07 1268.45 1292.66 1268.06C1292.25 1267.66 1291.83 1267.36 1291.4 1267.17C1290.97 1266.97 1290.56 1266.88 1290.16 1266.92C1289.76 1266.96 1289.41 1267.14 1289.09 1267.46C1288.78 1267.79 1288.61 1268.16 1288.58 1268.56C1288.55 1268.96 1288.64 1269.38 1288.86 1269.8C1289.07 1270.22 1289.39 1270.63 1289.8 1271.03C1290.21 1271.42 1290.63 1271.72 1291.06 1271.92C1291.49 1272.12 1291.9 1272.2 1292.3 1272.16C1292.7 1272.11 1293.06 1271.92 1293.38 1271.6ZM1300.2 1261.27L1296.14 1257.35L1298.03 1255.39L1305.1 1262.21L1303.28 1264.09L1302 1262.86L1301.93 1262.93C1302.19 1263.49 1302.26 1264.07 1302.16 1264.69C1302.05 1265.3 1301.74 1265.87 1301.23 1266.4C1300.78 1266.87 1300.27 1267.18 1299.71 1267.34C1299.15 1267.49 1298.57 1267.47 1297.98 1267.29C1297.39 1267.11 1296.82 1266.76 1296.27 1266.23L1291.77 1261.89L1293.66 1259.93L1297.81 1263.93C1298.23 1264.33 1298.67 1264.53 1299.12 1264.55C1299.58 1264.56 1299.98 1264.38 1300.34 1264.01C1300.57 1263.77 1300.73 1263.5 1300.82 1263.19C1300.91 1262.88 1300.9 1262.56 1300.81 1262.23C1300.72 1261.89 1300.51 1261.57 1300.2 1261.27ZM1306.73 1250.41L1305.11 1252.31C1304.92 1252.19 1304.72 1252.13 1304.5 1252.11C1304.28 1252.09 1304.05 1252.13 1303.82 1252.22C1303.58 1252.31 1303.36 1252.47 1303.14 1252.69C1302.85 1253 1302.66 1253.32 1302.59 1253.65C1302.52 1253.98 1302.58 1254.25 1302.8 1254.45C1302.96 1254.61 1303.17 1254.68 1303.42 1254.66C1303.67 1254.64 1303.98 1254.5 1304.37 1254.24L1305.86 1253.21C1306.66 1252.66 1307.39 1252.36 1308.02 1252.33C1308.66 1252.29 1309.24 1252.52 1309.74 1253.01C1310.21 1253.46 1310.48 1253.98 1310.57 1254.6C1310.66 1255.2 1310.57 1255.84 1310.31 1256.5C1310.05 1257.15 1309.63 1257.79 1309.04 1258.4C1308.13 1259.34 1307.22 1259.89 1306.3 1260.07C1305.37 1260.25 1304.53 1260.06 1303.76 1259.5L1305.52 1257.48C1305.86 1257.69 1306.21 1257.76 1306.58 1257.68C1306.94 1257.6 1307.29 1257.38 1307.63 1257.03C1307.96 1256.69 1308.16 1256.35 1308.23 1256.02C1308.3 1255.67 1308.23 1255.4 1308.02 1255.19C1307.84 1255.02 1307.62 1254.96 1307.37 1255C1307.11 1255.03 1306.8 1255.17 1306.44 1255.42L1305.02 1256.41C1304.21 1256.97 1303.48 1257.25 1302.81 1257.26C1302.15 1257.26 1301.56 1257.01 1301.03 1256.5C1300.57 1256.06 1300.3 1255.56 1300.21 1255C1300.12 1254.44 1300.2 1253.85 1300.46 1253.23C1300.72 1252.6 1301.14 1251.99 1301.72 1251.39C1302.58 1250.49 1303.45 1249.97 1304.32 1249.83C1305.19 1249.67 1306 1249.87 1306.73 1250.41ZM1315.87 1251.32C1315.17 1252.05 1314.42 1252.53 1313.62 1252.77C1312.82 1253 1312.01 1253 1311.19 1252.76C1310.38 1252.51 1309.59 1252.03 1308.85 1251.31C1308.12 1250.61 1307.62 1249.86 1307.34 1249.04C1307.07 1248.23 1307.02 1247.42 1307.21 1246.62C1307.4 1245.8 1307.83 1245.05 1308.5 1244.36C1308.95 1243.89 1309.44 1243.53 1309.98 1243.27C1310.52 1243.01 1311.08 1242.87 1311.67 1242.86C1312.26 1242.84 1312.86 1242.97 1313.47 1243.23C1314.08 1243.5 1314.69 1243.92 1315.29 1244.5L1315.83 1245.02L1310.07 1250.98L1308.86 1249.81L1312.83 1245.69C1312.55 1245.42 1312.24 1245.24 1311.91 1245.15C1311.57 1245.06 1311.24 1245.07 1310.9 1245.17C1310.57 1245.26 1310.27 1245.45 1309.99 1245.74C1309.71 1246.04 1309.52 1246.37 1309.44 1246.73C1309.35 1247.09 1309.36 1247.44 1309.47 1247.79C1309.57 1248.14 1309.76 1248.45 1310.04 1248.72L1311.19 1249.83C1311.54 1250.17 1311.91 1250.4 1312.28 1250.52C1312.67 1250.63 1313.04 1250.63 1313.41 1250.53C1313.78 1250.42 1314.12 1250.2 1314.44 1249.88C1314.65 1249.66 1314.81 1249.43 1314.92 1249.19C1315.04 1248.95 1315.09 1248.71 1315.1 1248.46C1315.1 1248.21 1315.04 1247.97 1314.93 1247.73L1316.8 1246.03C1317.14 1246.54 1317.34 1247.1 1317.39 1247.7C1317.44 1248.29 1317.34 1248.9 1317.09 1249.52C1316.84 1250.14 1316.43 1250.74 1315.87 1251.32Z" fill="#171717"/>
<path d="M1243.37 452.337L1250.61 444.813L1250.55 444.707L1240.29 446.663L1238.83 443.966L1252.49 441.69L1254.19 444.825L1244.84 455.04L1243.37 452.337ZM1249.24 435.706L1237.74 441.948L1233.53 434.194L1235.53 433.106L1238.42 438.427L1241.16 436.939L1238.49 432.018L1240.5 430.93L1243.17 435.851L1245.92 434.361L1243.02 429.018L1245.02 427.93L1249.24 435.706ZM1243.64 425.385L1232.14 431.627L1229.67 427.087C1229.2 426.218 1228.96 425.392 1228.93 424.61C1228.9 423.825 1229.09 423.118 1229.48 422.489C1229.86 421.858 1230.43 421.337 1231.2 420.924C1231.96 420.51 1232.71 420.318 1233.44 420.349C1234.16 420.382 1234.84 420.632 1235.47 421.099C1236.1 421.562 1236.66 422.236 1237.13 423.12L1238.78 426.159L1236.83 427.22L1235.39 424.574C1235.14 424.109 1234.87 423.758 1234.57 423.52C1234.28 423.282 1233.97 423.157 1233.63 423.145C1233.29 423.13 1232.93 423.225 1232.55 423.43C1232.17 423.637 1231.89 423.889 1231.71 424.185C1231.53 424.477 1231.46 424.815 1231.49 425.199C1231.52 425.581 1231.66 426.007 1231.92 426.475L1232.81 428.115L1242.32 422.952L1243.64 425.385ZM1235.04 422.012L1238.72 416.311L1240.18 418.997L1236.46 424.635L1235.04 422.012ZM1235.45 410.29L1237.67 414.369L1226.16 420.611L1223.93 416.499C1223.3 415.341 1222.99 414.22 1223 413.135C1223 412.051 1223.31 411.052 1223.93 410.138C1224.54 409.219 1225.44 408.436 1226.64 407.787C1227.83 407.137 1228.99 406.805 1230.09 406.791C1231.2 406.773 1232.21 407.06 1233.13 407.653C1234.05 408.242 1234.82 409.121 1235.45 410.29ZM1234.26 413.067L1233.42 411.522C1233.03 410.803 1232.58 410.267 1232.06 409.914C1231.53 409.56 1230.93 409.406 1230.26 409.451C1229.58 409.495 1228.81 409.749 1227.95 410.215C1227.1 410.676 1226.48 411.178 1226.07 411.722C1225.67 412.262 1225.47 412.846 1225.48 413.475C1225.49 414.104 1225.69 414.778 1226.08 415.497L1226.93 417.048L1234.26 413.067ZM1231.08 402.225L1219.57 408.467L1215.37 400.714L1217.37 399.626L1220.26 404.946L1223 403.459L1220.33 398.537L1222.34 397.449L1225.01 402.371L1227.75 400.88L1224.86 395.537L1226.86 394.449L1231.08 402.225ZM1212.74 395.866L1215.4 391.418L1215.35 391.328L1210.16 391.124L1208.67 388.376L1216.33 388.767L1220.14 382.055L1221.66 384.853L1219.01 389.344L1219.06 389.433L1224.26 389.663L1225.78 392.449L1218.07 391.969L1214.23 398.624L1212.74 395.866Z" fill="#171717"/>
<path d="M335.652 704.433L348.742 704.339L348.779 709.504C348.786 710.492 348.616 711.337 348.267 712.039C347.922 712.744 347.43 713.283 346.789 713.654C346.152 714.029 345.402 714.22 344.537 714.226C343.667 714.232 342.918 714.05 342.289 713.679C341.664 713.309 341.183 712.769 340.846 712.06C340.508 711.355 340.336 710.499 340.329 709.494L340.304 706.036L342.528 706.02L342.55 709.03C342.554 709.559 342.629 709.997 342.777 710.346C342.924 710.694 343.143 710.952 343.434 711.121C343.725 711.293 344.086 711.378 344.516 711.375C344.951 711.372 345.317 711.282 345.614 711.105C345.911 710.933 346.135 710.669 346.286 710.314C346.441 709.964 346.517 709.522 346.513 708.989L346.499 707.123L335.672 707.2L335.652 704.433ZM341.66 711.459L335.725 714.755L335.704 711.7L341.638 708.474L341.66 711.459ZM345.107 722.56C345.623 722.505 346.022 722.282 346.304 721.893C346.587 721.503 346.726 720.976 346.721 720.311C346.718 719.859 346.652 719.478 346.521 719.168C346.396 718.858 346.221 718.62 345.999 718.456C345.776 718.295 345.524 718.216 345.243 718.218C345.008 718.211 344.804 718.262 344.63 718.37C344.456 718.482 344.306 718.634 344.179 718.827C344.057 719.019 343.95 719.242 343.858 719.494C343.771 719.746 343.696 720.015 343.634 720.301L343.361 721.479C343.237 722.051 343.071 722.576 342.861 723.055C342.651 723.534 342.392 723.949 342.084 724.301C341.775 724.652 341.41 724.926 340.99 725.12C340.569 725.319 340.087 725.423 339.541 725.431C338.74 725.432 338.044 725.233 337.453 724.832C336.866 724.436 336.408 723.86 336.079 723.103C335.754 722.351 335.588 721.443 335.58 720.377C335.573 719.321 335.728 718.399 336.046 717.613C336.365 716.831 336.84 716.218 337.471 715.774C338.108 715.335 338.896 715.102 339.838 715.074L339.857 717.752C339.418 717.785 339.053 717.913 338.76 718.137C338.472 718.365 338.255 718.667 338.108 719.043C337.966 719.423 337.897 719.852 337.9 720.329C337.904 720.798 337.975 721.204 338.114 721.548C338.252 721.897 338.444 722.166 338.688 722.356C338.932 722.546 339.212 722.64 339.528 722.638C339.822 722.636 340.068 722.547 340.267 722.37C340.466 722.199 340.635 721.946 340.773 721.612C340.911 721.283 341.036 720.88 341.148 720.402L341.496 718.974C341.756 717.868 342.17 716.994 342.736 716.35C343.303 715.707 344.07 715.384 345.037 715.382C345.83 715.372 346.524 715.578 347.119 716C347.714 716.426 348.181 717.013 348.519 717.76C348.856 718.508 349.029 719.359 349.035 720.313C349.042 721.285 348.882 722.134 348.555 722.861C348.228 723.592 347.769 724.162 347.18 724.571C346.591 724.98 345.906 725.194 345.126 725.212L345.107 722.56ZM335.843 731.24L335.81 726.599L348.901 726.506L348.934 731.185C348.943 732.502 348.689 733.637 348.172 734.591C347.659 735.545 346.916 736.281 345.944 736.799C344.972 737.322 343.806 737.588 342.447 737.598C341.083 737.607 339.91 737.358 338.926 736.849C337.942 736.345 337.185 735.615 336.654 734.66C336.123 733.71 335.853 732.569 335.843 731.24ZM338.201 729.35L338.214 731.108C338.22 731.926 338.369 732.613 338.663 733.169C338.961 733.73 339.418 734.148 340.034 734.425C340.653 734.706 341.451 734.843 342.427 734.836C343.394 734.83 344.184 734.681 344.796 734.391C345.407 734.106 345.856 733.683 346.142 733.122C346.427 732.562 346.567 731.873 346.562 731.055L346.549 729.291L338.201 729.35ZM335.909 740.493L335.888 737.527L349.011 741.953L349.036 745.519L335.978 750.125L335.957 747.16L346.032 743.808L346.032 743.706L335.909 740.493ZM341.053 740.271L341.103 747.276L338.943 747.292L338.893 740.286L341.053 740.271ZM344.57 761.855L344.55 759.056C344.911 759.002 345.232 758.895 345.513 758.735C345.797 758.576 346.038 758.372 346.237 758.123C346.435 757.874 346.587 757.588 346.691 757.263C346.795 756.943 346.846 756.595 346.843 756.22C346.839 755.543 346.666 754.954 346.326 754.453C345.99 753.953 345.501 753.566 344.86 753.294C344.223 753.022 343.451 752.889 342.543 752.895C341.61 752.902 340.827 753.046 340.194 753.327C339.561 753.613 339.084 754.009 338.764 754.514C338.444 755.019 338.286 755.602 338.291 756.262C338.294 756.633 338.345 756.976 338.445 757.29C338.546 757.609 338.69 757.891 338.88 758.137C339.073 758.383 339.307 758.586 339.581 758.746C339.855 758.91 340.166 759.023 340.516 759.084L340.524 761.884C339.922 761.816 339.341 761.639 338.781 761.353C338.225 761.072 337.726 760.69 337.283 760.207C336.845 759.728 336.496 759.156 336.236 758.488C335.98 757.826 335.848 757.074 335.842 756.235C335.834 755.067 336.091 754.021 336.613 753.097C337.135 752.177 337.894 751.447 338.892 750.908C339.89 750.372 341.1 750.099 342.523 750.089C343.951 750.079 345.167 750.339 346.172 750.868C347.178 751.398 347.946 752.121 348.476 753.038C349.011 753.955 349.283 754.988 349.291 756.139C349.296 756.897 349.195 757.601 348.986 758.25C348.778 758.904 348.471 759.484 348.066 759.989C347.664 760.495 347.171 760.908 346.585 761.227C345.999 761.551 345.327 761.76 344.57 761.855Z" fill="#171717"/>
</svg>
