<svg width="1080" height="1080" viewBox="0 0 1080 1080" fill="none" xmlns="http://www.w3.org/2000/svg">
<rect width="1080" height="1080" fill="#171717"/>
<path d="M174 633V446.818H254.364C268.182 446.818 280.273 449.333 290.636 454.364C301 459.394 309.061 466.636 314.818 476.091C320.576 485.545 323.455 496.879 323.455 510.091C323.455 523.424 320.485 534.667 314.545 543.818C308.667 552.97 300.394 559.879 289.727 564.545C279.121 569.212 266.727 571.545 252.545 571.545H204.545V532.273H242.364C248.303 532.273 253.364 531.545 257.545 530.091C261.788 528.576 265.03 526.182 267.273 522.909C269.576 519.636 270.727 515.364 270.727 510.091C270.727 504.758 269.576 500.424 267.273 497.091C265.03 493.697 261.788 491.212 257.545 489.636C253.364 488 248.303 487.182 242.364 487.182H224.545V633H174ZM283.091 547.545L329.636 633H274.727L229.273 547.545H283.091ZM406.964 505C406.479 498.939 404.206 494.212 400.145 490.818C396.145 487.424 390.055 485.727 381.873 485.727C376.661 485.727 372.388 486.364 369.055 487.636C365.782 488.848 363.358 490.515 361.782 492.636C360.206 494.758 359.388 497.182 359.327 499.909C359.206 502.152 359.6 504.182 360.509 506C361.479 507.758 362.994 509.364 365.055 510.818C367.115 512.212 369.752 513.485 372.964 514.636C376.176 515.788 379.994 516.818 384.418 517.727L399.691 521C409.994 523.182 418.812 526.061 426.145 529.636C433.479 533.212 439.479 537.424 444.145 542.273C448.812 547.061 452.236 552.455 454.418 558.455C456.661 564.455 457.812 571 457.873 578.091C457.812 590.333 454.752 600.697 448.691 609.182C442.63 617.667 433.964 624.121 422.691 628.545C411.479 632.97 397.994 635.182 382.236 635.182C366.055 635.182 351.933 632.788 339.873 628C327.873 623.212 318.539 615.848 311.873 605.909C305.267 595.909 301.933 583.121 301.873 567.545H349.873C350.176 573.242 351.6 578.03 354.145 581.909C356.691 585.788 360.267 588.727 364.873 590.727C369.539 592.727 375.085 593.727 381.509 593.727C386.903 593.727 391.418 593.061 395.055 591.727C398.691 590.394 401.448 588.545 403.327 586.182C405.206 583.818 406.176 581.121 406.236 578.091C406.176 575.242 405.236 572.758 403.418 570.636C401.661 568.455 398.752 566.515 394.691 564.818C390.63 563.061 385.145 561.424 378.236 559.909L359.691 555.909C343.206 552.333 330.206 546.364 320.691 538C311.236 529.576 306.539 518.091 306.6 503.545C306.539 491.727 309.691 481.394 316.055 472.545C322.479 463.636 331.358 456.697 342.691 451.727C354.085 446.758 367.145 444.273 381.873 444.273C396.903 444.273 409.903 446.788 420.873 451.818C431.842 456.848 440.297 463.939 446.236 473.091C452.236 482.182 455.267 492.818 455.327 505H406.964ZM510.336 633H438.7V446.818H509.609C528.761 446.818 545.306 450.545 559.245 458C573.245 465.394 584.033 476.061 591.609 490C599.245 503.879 603.064 520.515 603.064 539.909C603.064 559.303 599.276 575.97 591.7 589.909C584.124 603.788 573.397 614.455 559.518 621.909C545.639 629.303 529.245 633 510.336 633ZM489.245 590.091H508.518C517.73 590.091 525.579 588.606 532.064 585.636C538.609 582.667 543.579 577.545 546.973 570.273C550.427 563 552.155 552.879 552.155 539.909C552.155 526.939 550.397 516.818 546.882 509.545C543.427 502.273 538.336 497.152 531.609 494.182C524.942 491.212 516.761 489.727 507.064 489.727H489.245V590.091ZM624.664 633H570.118L631.573 446.818H700.664L762.118 633H707.573L666.845 498.091H665.391L624.664 633ZM614.482 559.545H717.027V597.364H614.482V559.545ZM906.718 516.636H855.445C855.082 512.394 854.112 508.545 852.536 505.091C851.021 501.636 848.9 498.667 846.173 496.182C843.506 493.636 840.264 491.697 836.445 490.364C832.627 488.97 828.294 488.273 823.445 488.273C814.961 488.273 807.779 490.333 801.9 494.455C796.082 498.576 791.658 504.485 788.627 512.182C785.658 519.879 784.173 529.121 784.173 539.909C784.173 551.303 785.688 560.848 788.718 568.545C791.809 576.182 796.264 581.939 802.082 585.818C807.9 589.636 814.9 591.545 823.082 591.545C827.749 591.545 831.93 590.97 835.627 589.818C839.324 588.606 842.536 586.879 845.264 584.636C847.991 582.394 850.203 579.697 851.9 576.545C853.658 573.333 854.839 569.727 855.445 565.727L906.718 566.091C906.112 573.97 903.9 582 900.082 590.182C896.264 598.303 890.839 605.818 883.809 612.727C876.839 619.576 868.203 625.091 857.9 629.273C847.597 633.455 835.627 635.545 821.991 635.545C804.9 635.545 789.567 631.879 775.991 624.545C762.476 617.212 751.779 606.424 743.9 592.182C736.082 577.939 732.173 560.515 732.173 539.909C732.173 519.182 736.173 501.727 744.173 487.545C752.173 473.303 762.961 462.545 776.536 455.273C790.112 447.939 805.264 444.273 821.991 444.273C833.749 444.273 844.567 445.879 854.445 449.091C864.324 452.303 872.991 457 880.445 463.182C887.9 469.303 893.9 476.848 898.445 485.818C902.991 494.788 905.749 505.061 906.718 516.636Z" fill="white"/>
</svg>
