<svg width="100" height="100" viewBox="0 0 100 100" fill="none" xmlns="http://www.w3.org/2000/svg">
<g id="vitejs">
<g id="vitejs_2">
<path id="Vector" d="M98.848 14.801L52.7313 98.6946C51.779 100.427 49.3328 100.437 48.3664 98.7134L1.33543 14.8088C0.28237 12.9307 1.86119 10.6554 3.9535 11.0362L50.1197 19.4307C50.4142 19.4842 50.7158 19.4837 51.0102 19.4291L96.2107 11.0479C98.2961 10.6612 99.8822 12.9189 98.848 14.801Z" fill="url(#paint0_linear_790_3556)"/>
<path id="Vector_2" d="M72.1109 0.0246207L37.9835 6.8278C37.7108 6.88215 37.4636 7.02714 37.2808 7.23999C37.0979 7.45285 36.9898 7.72148 36.9734 8.00367L34.8742 44.074C34.8626 44.2718 34.8966 44.4697 34.9733 44.6518C35.05 44.834 35.1675 44.9954 35.3162 45.1233C35.465 45.2513 35.6411 45.3421 35.8304 45.3888C36.0197 45.4354 36.2171 45.4364 36.407 45.3919L45.9086 43.1611C46.7976 42.9524 47.601 43.749 47.4181 44.6584L44.5952 58.7216C44.4054 59.6681 45.2786 60.4772 46.1871 60.1964L52.056 58.3826C52.9656 58.1017 53.84 58.9132 53.6474 59.8604L49.1614 81.9503C48.8807 83.3321 50.6873 84.0855 51.4405 82.901L51.944 82.1098L79.753 25.6495C80.219 24.7042 79.4156 23.6262 78.3955 23.8268L68.6146 25.747C67.6958 25.9273 66.9138 25.0565 67.1731 24.142L73.5566 1.62925C73.8162 0.712429 73.0312 -0.158743 72.1113 0.0246207H72.1109Z" fill="url(#paint1_linear_790_3556)"/>
</g>
</g>
<defs>
<linearGradient id="paint0_linear_790_3556" x1="0.187129" y1="17.8048" x2="51.0375" y2="85.6875" gradientUnits="userSpaceOnUse">
<stop stop-color="#41D1FF"/>
<stop offset="1" stop-color="#BD34FE"/>
</linearGradient>
<linearGradient id="paint1_linear_790_3556" x1="54.3984" y1="1.87182" x2="64.9803" y2="73.2241" gradientUnits="userSpaceOnUse">
<stop stop-color="#FFEA83"/>
<stop offset="0.083" stop-color="#FFDD35"/>
<stop offset="1" stop-color="#FFA800"/>
</linearGradient>
</defs>
</svg>
